<svg width="14" height="14" viewBox="0 0 14 14" fill="none" xmlns="http://www.w3.org/2000/svg">
<path d="M12.3247 11.4913C12.5584 11.7094 12.5584 12.0629 12.3247 12.281C12.0911 12.4991 11.7123 12.4991 11.4786 12.281L8.32054 9.33344C8.08689 9.11537 8.09967 8.77373 8.33331 8.55566C8.56696 8.33759 8.94578 8.33759 9.17942 8.55566L12.3247 11.4913ZM5.61964 10.4901C2.97622 10.4901 0.833313 8.49009 0.833313 6.0229C0.833313 3.55571 2.97622 1.55566 5.61964 1.55566C8.26305 1.55566 10.406 3.55571 10.406 6.0229C10.406 8.49009 8.26305 10.4901 5.61964 10.4901ZM5.61964 9.37333C7.6022 9.37333 9.20938 7.87329 9.20938 6.0229C9.20938 4.17251 7.6022 2.67247 5.61964 2.67247C3.63708 2.67247 2.02989 4.17251 2.02989 6.0229C2.02989 7.87329 3.63708 9.37333 5.61964 9.37333Z" fill="#D0C9D6"/>
</svg>
