<svg width="80" height="81" viewBox="0 0 80 81" fill="none" xmlns="http://www.w3.org/2000/svg">
<path d="M56.6667 6.97382H23.3333C14.1286 6.97382 6.66666 14.4357 6.66666 23.6405V56.9738C6.66666 66.1786 14.1286 73.6405 23.3333 73.6405H56.6667C65.8714 73.6405 73.3333 66.1786 73.3333 56.9738V23.6405C73.3333 14.4357 65.8714 6.97382 56.6667 6.97382Z" stroke="#FAFAFA" stroke-width="6" stroke-linecap="round" stroke-linejoin="round"/>
<path d="M53.3333 38.2072C53.7447 40.9813 53.2709 43.8145 51.9792 46.3039C50.6875 48.7932 48.6438 50.8119 46.1387 52.0727C43.6337 53.3336 40.7948 53.7725 38.0259 53.3269C35.2571 52.8814 32.6992 51.5741 30.7161 49.591C28.7331 47.608 27.4258 45.0501 26.9802 42.2812C26.5347 39.5123 26.9735 36.6735 28.2344 34.1684C29.4953 31.6633 31.5139 29.6196 34.0033 28.328C36.4926 27.0363 39.3258 26.5625 42.1 26.9738C44.9297 27.3934 47.5495 28.712 49.5723 30.7348C51.5951 32.7577 52.9137 35.3774 53.3333 38.2072Z" stroke="#FAFAFA" stroke-width="6" stroke-linecap="round" stroke-linejoin="round"/>
<path d="M58.3333 21.9738H58.3667" stroke="#FAFAFA" stroke-width="6" stroke-linecap="round" stroke-linejoin="round"/>
</svg>
