<svg width="100" height="100" viewBox="0 0 100 100" fill="none" xmlns="http://www.w3.org/2000/svg">
<path d="M93.9166 26.75C93.4217 24.7726 92.4137 22.9607 90.9944 21.4975C89.5751 20.0344 87.7948 18.9716 85.8333 18.4167C78.6666 16.6667 50 16.6667 50 16.6667C50 16.6667 21.3333 16.6667 14.1666 18.5834C12.2052 19.1383 10.4249 20.201 9.00559 21.6642C7.58629 23.1274 6.57826 24.9392 6.08331 26.9167C4.7717 34.1898 4.13013 41.568 4.16664 48.9583C4.11989 56.4044 4.76151 63.8388 6.08331 71.1667C6.62897 73.0827 7.65959 74.8256 9.07558 76.227C10.4916 77.6284 12.2451 78.6409 14.1666 79.1667C21.3333 81.0833 50 81.0833 50 81.0833C50 81.0833 78.6666 81.0833 85.8333 79.1667C87.7948 78.6117 89.5751 77.549 90.9944 76.0858C92.4137 74.6226 93.4217 72.8108 93.9166 70.8333C95.2181 63.615 95.8597 56.2931 95.8333 48.9583C95.8801 41.5123 95.2384 34.0779 93.9166 26.75Z" fill="#FAFAFA" stroke="#FAFAFA" stroke-width="2" stroke-linecap="round" stroke-linejoin="round"/>
<path d="M40.625 62.5833L64.5833 48.9583L40.625 35.3333V62.5833Z" fill="#EE0000" stroke="#FAFAFA" stroke-width="2" stroke-linecap="round" stroke-linejoin="round"/>
</svg>
